{"title":"Sherlock Holmes (2009) DVDSCR XviD-MAX","uid":5285178,"size":1461384695,"categoryP":"video","categoryS":"movies","magnet":"?xt=urn:btih:58ba64d81d924d1c905a0ffc0ca0d825e7b1637c&amp;dn=Sherlock+Holmes+%282009%29+DVDSCR+XviD-MAX&amp;tr=udp%3A%2F%2Ftracker.openbittorrent.com%3A80&amp;tr=udp%3A%2F%2Fopen.demonii.com%3A1337&amp;tr=udp%3A%2F%2Ftracker.coppersurfer.tk%3A6969&amp;tr=udp%3A%2F%2Fexodus.desync.com%3A6969","seeders":7,"leechers":0,"uploader":"extremezone","files":-1,"time":1263685601,"description":"Sherlock Holmes (2009) BDRip XviD-MAX (BEST QUALITY)  &lt;a href=&quot;\nhttp://torrents.thepiratebay.se/5429274/Sherlock_Holmes_(2009)_BDRip_XviD-MAX.5429274.TPB.torrent&quot; rel=&quot;nofollow&quot; target=&quot;_NEW&quot;&gt;\nhttp://torrents.thepiratebay.se/5429274/Sherlock_Holmes_(2009)_BDRip_XviD-MAX.5429274.TPB.torrent&lt;/a&gt;\n\nSherlock Holmes (2009) DVDSCR XviD-MAX \n\nFormat                           : AVI \nFormat/Info                      : Audio Video Interleave \nFile size                        : 1.36 GiB\nDuration                         : 2h 8mn \nOverall bit rate                 : 1 517 Kbps\nWriting application              : VirtualDubMod 1.5.10.2 (build 2542/release)\nWriting library                  : VirtualDubMod build 2542/release\nOriginal source form             : MAX TORRENTZ\nCopyright                        : SIGISMUNT\n\nVideo\nFormat                           : xvid\nCodec ID                         : xvid\nDuration                         : 2h 8mn\nBit rate                         : 1 376 Kbps\nWidth                            : 704 pixels\nHeight                           : 384 pixels\nDisplay aspect ratio             : 16:9\nFrame rate                       : 23.976 fps\nResolution                       : 24 bits\nBits/(Pixel*Frame)               : 0.212\nStream size                      : 1.23 GiB (91%)\n\nAudio\nID                               : 1\nFormat                           : MPEG Audio\nFormat version                   : Version 1\nFormat profile                   : Layer 3\nCodec ID                         : 55\nCodec ID/Hint                    : MP3\nDuration                         : 2h 8mn\nBit rate mode                    : Constant\nBit rate                         : 128 Kbps\nChannel(s)                       : 2 channels\nSampling rate                    : 48.0 KHz\nResolution                       : 16 bits\nStream size                      : 118 MiB (8%)\nAlignment                        : Aligned on interleaves\nInterleave, duration             : 24 ms (0.58 video frame)\nInterleave, preload duration     : 504 ms &lt;a href=&quot;\nhttp://www.imdb.com/title/tt0988045/&quot; rel=&quot;nofollow&quot; target=&quot;_NEW&quot;&gt;\nhttp://www.imdb.com/title/tt0988045/&lt;/a&gt;\n\nScreens: &lt;a href=&quot;\nhttp://www.postimg.com/image/11000/10278.jpg&quot; rel=&quot;nofollow&quot; target=&quot;_NEW&quot;&gt;\nhttp://www.postimg.com/image/11000/10278.jpg&lt;/a&gt; &lt;a href=&quot;\nhttp://www.postimg.com/image/11000/10279.jpg&quot; rel=&quot;nofollow&quot; target=&quot;_NEW&quot;&gt;\nhttp://www.postimg.com/image/11000/10279.jpg&lt;/a&gt; &lt;a href=&quot;\nhttp://www.postimg.com/image/11000/10280.jpg&quot; rel=&quot;nofollow&quot; target=&quot;_NEW&quot;&gt;\nhttp://www.postimg.com/image/11000/10280.jpg&lt;/a&gt; &lt;a href=&quot;\nhttp://www.postimg.com/image/11000/10281.jpg&quot; rel=&quot;nofollow&quot; target=&quot;_NEW&quot;&gt;\nhttp://www.postimg.com/image/11000/10281.jpg&lt;/a&gt;\n\nScreenCaps: &lt;a href=&quot;\nhttp://www.postimg.com/image/11000/10282.jpg&quot; rel=&quot;nofollow&quot; target=&quot;_NEW&quot;&gt;\nhttp://www.postimg.com/image/11000/10282.jpg&lt;/a&gt;\n\nSherlock Holmes (2009) DVDSCR XviD-MAX Torrent Free Download &lt;a href=&quot;\nhttp://thepiratebay.se/user/extremezone/0/7&quot; rel=&quot;nofollow&quot; target=&quot;_NEW&quot;&gt;\nhttp://thepiratebay.se/user/extremezone/0/7&lt;/a&gt;\n\nHow To Get Your Maxspeed (uTorrent)\n\nTorrent Client - Preferences - Bandwidth - Number of connections - Set aprox. 500 for each \nTorrent Client - Preferences - BiTorrent - Protocol Encryption - Forced\nBandwidth Allocation - High (Set download/upload limit - Unlimited)\nStop Other Active Torrents - Start downloading and wait for connections\nEnjoy and Seed for at least 1:1 ratio. Also please spread the link where you found this torrent to your friends.","torrent":{"xt":"urn:btih:58ba64d81d924d1c905a0ffc0ca0d825e7b1637c","amp;dn":"Sherlock+Holmes+%282009%29+DVDSCR+XviD-MAX","amp;tr":["udp%3A%2F%2Ftracker.openbittorrent.com%3A80","udp%3A%2F%2Fopen.demonii.com%3A1337","udp%3A%2F%2Ftracker.coppersurfer.tk%3A6969","udp%3A%2F%2Fexodus.desync.com%3A6969"],"infoHash":"58ba64d81d924d1c905a0ffc0ca0d825e7b1637c","infoHashBuffer":{"type":"Buffer","data":[88,186,100,216,29,146,77,28,144,90,15,252,12,160,216,37,231,177,99,124]},"announce":[],"urlList":[]}}